Coordinates
version=1
nRows=9
nColumns=36
inDegrees=yes

Units are S.I. units (second, meters, Newtons, ...)
If the header above contains a line with 'inDegrees', this indicates whether rotational values are in degrees (yes) or radians (no).

endheader
time	pelvis_tilt	pelvis_list	pelvis_rotation	pelvis_tx	pelvis_ty	pelvis_tz	hip_flexion_r	hip_adduction_r	hip_rotation_r	knee_angle_r	knee_angle_r_beta	ankle_angle_r	subtalar_angle_r	mtp_angle_r	hip_flexion_l	hip_adduction_l	hip_rotation_l	knee_angle_l	knee_angle_l_beta	ankle_angle_l	subtalar_angle_l	mtp_angle_l	lumbar_extension	lumbar_bending	lumbar_rotation	arm_flex_r	arm_add_r	arm_rot_r	elbow_flex_r	pro_sup_r	arm_flex_l	arm_add_l	arm_rot_l	elbow_flex_l	pro_sup_l
      2.09583330	    -16.59058406	      0.43857945	      4.52232160	      0.18861307	      0.79714917	     -0.07016591	     56.65210163	     -5.09332368	      1.93402699	     71.67336056	      1.25093613	     19.39511847	    -34.19427908	     -7.49999987	     52.82423861	     -4.90786927	     -0.11086213	     71.23854987	      1.24334725	     22.42583553	    -17.47007476	     -7.49999987	    -13.09447191	      0.51464704	      4.00083798	     79.89314928	    -26.81615271	     46.12869383	    108.70450435	     92.97414524	     72.88097753	    -35.47152954	     22.79501869	    124.59460228	     84.57513095
      2.10000000	    -16.42819256	      0.50439800	      4.76893310	      0.19328135	      0.81293837	     -0.06557069	     54.66046254	     -5.27171013	      1.62496627	     69.07824924	      1.20564289	     18.67382757	    -34.17280180	     -7.49999987	     50.54675796	     -5.02404338	     -0.77721608	     67.93447092	      1.18568019	     22.06415995	    -16.26983384	     -7.49999987	    -12.31172667	      0.26770106	      3.62824042	     78.57280131	    -26.46048096	     45.65028382	    108.91064755	     92.50259342	     72.50321838	    -36.22797273	     23.35035924	    124.51358056	     83.91141926
      2.10416670	    -16.06988664	      0.50329634	      4.77076458	      0.19852405	      0.81951673	     -0.06183594	     52.77811695	     -5.07357533	      1.22088960	     67.15880461	      1.17214226	     18.24394624	    -34.17761062	     -7.49999987	     48.34014353	     -5.51387735	     -1.37473006	     65.29319928	      1.13958131	     21.56853889	    -15.42149140	     -7.49999987	    -11.68485150	     -0.03582709	      3.66028621	     76.90203600	    -26.50936214	     45.45266986	    109.31724991	     85.66633214	     72.56274526	    -36.50230763	     24.31509733	    124.12523152	     79.51478292
      2.10833330	    -16.03269192	      0.53484972	      4.81957266	      0.19898395	      0.82534712	     -0.06187967	     51.44382831	     -5.07428867	      0.68130217	     65.32761427	      1.14018196	     17.75630486	    -34.16208153	     -7.49999987	     46.88176444	     -5.63749646	     -1.50443790	     63.11921529	      1.10163813	     20.89145818	    -15.02772319	     -7.49999987	    -10.69426437	     -0.43388007	      3.51546284	     76.37480141	    -26.66469667	     45.58871542	    109.14060341	     86.06481741	     72.20850956	    -36.82716423	     24.42701569	    124.12122970	     79.73109374
      2.11250000	    -15.66702541	      0.40564634	      4.59081409	      0.20372245	      0.83020512	     -0.05832394	     49.96756864	     -4.61096576	      0.27073689	     63.83088962	      1.11405919	     17.15540682	    -34.14655163	     -7.49999987	     45.16782183	     -6.04682943	     -1.48825788	     60.96573189	      1.06405275	     19.79028150	    -15.43621085	     -7.49999987	    -10.16659139	     -0.60902086	      3.13214687	     76.61113639	    -25.99004471	     45.43296208	    108.50764546	     91.63696706	     72.51695800	    -37.82599651	     24.43754069	    124.23923971	     82.91688789
      2.11666670	    -15.80803665	      0.54803602	      4.57866291	      0.20414695	      0.84003459	     -0.05876077	     49.12509765	     -4.69468331	     -0.03875338	     62.18118380	      1.08526639	     16.46188176	    -34.14620361	     -7.49999987	     43.94313009	     -5.87864635	     -1.76893486	     58.63860190	      1.02343667	     19.12297728	    -15.61080296	     -7.49999987	     -9.20673839	     -1.06604060	      2.97413129	     75.96289379	    -26.07800482	     45.14510807	    108.36318786	     91.66070556	     73.18660878	    -38.31295831	     25.42497116	    123.74224933	     82.87132728
      2.12083330	    -15.79742300	      0.65431014	      4.65513398	      0.20497892	      0.85575923	     -0.05978888	     47.59170791	     -4.86736525	     -0.36517615	     59.40199025	      1.03676031	     15.03127029	    -34.09706544	     -7.49999987	     42.41479462	     -5.46270868	     -1.82603950	     55.80559641	      0.97399140	     17.59969613	    -16.01269166	     -7.49999987	     -8.76742264	     -1.42000000	      2.86752066	     74.61764609	    -26.48929158	     44.43612091	    109.00793088	     88.73913441	     73.25241308	    -38.35506712	     25.80399473	    123.73492280	     80.53555914
      2.12500000	    -15.96795389	      0.67953567	      4.70538444	      0.20973483	      0.86400697	     -0.05543246	     46.24191411	     -4.91797341	     -0.90142238	     56.75955306	      0.99064108	     13.72743684	    -34.00048635	     -7.49999987	     41.20682665	     -5.47725607	     -2.05356211	     53.24008499	      0.92921478	     16.21968277	    -15.40562967	     -7.49999987	     -7.90775343	     -1.65562129	      2.72351096	     73.79222894	    -27.20567833	     44.95313019	    109.33683971	     88.94845200	     72.75233679	    -38.57082326	     26.13642766	    123.93720350	     80.63055999
      2.12916670	    -15.44272770	      0.44155151	      4.96559714	      0.21023696	      0.87385597	     -0.05629334	     44.23199626	     -4.98116235	     -1.64735281	     54.06043771	      0.94353263	     11.91973705	    -33.95809015	     -7.49999987	     39.58943306	     -5.45283686	     -1.77815297	     50.95302831	      0.88929811	     14.90597885	    -15.35462818	     -7.49999987	     -8.07851527	     -1.50476510	      2.69595166	     73.96243938	    -28.24485543	     44.95648654	    110.25121094	     89.37779477	     73.46468127	    -38.38215613	     26.58622026	    123.97593872	     80.85848984
